<?xml version="1.0" encoding="UTF-8" standalone="no"?>
<!-- Created with Inkscape (http://www.inkscape.org/) -->

<svg
   version="1.0"
   width="199.41701"
   height="199.41701"
   id="svg2424"
   sodipodi:docname="arch-linux.svg"
   inkscape:version="1.4 (e7c3feb100, 2024-10-09)"
   xmlns:inkscape="http://www.inkscape.org/namespaces/inkscape"
   xmlns:sodipodi="http://sodipodi.sourceforge.net/DTD/sodipodi-0.dtd"
   xmlns:xlink="http://www.w3.org/1999/xlink"
   xmlns="http://www.w3.org/2000/svg"
   xmlns:svg="http://www.w3.org/2000/svg">
  <sodipodi:namedview
     id="namedview1"
     pagecolor="#ffffff"
     bordercolor="#000000"
     borderopacity="0.25"
     inkscape:showpageshadow="2"
     inkscape:pageopacity="0.0"
     inkscape:pagecheckerboard="0"
     inkscape:deskcolor="#d1d1d1"
     inkscape:zoom="1.1283333"
     inkscape:cx="211.37371"
     inkscape:cy="90.84195"
     inkscape:window-width="1536"
     inkscape:window-height="792"
     inkscape:window-x="0"
     inkscape:window-y="0"
     inkscape:window-maximized="1"
     inkscape:current-layer="g2424" />
  <defs
     id="defs2426">
    <linearGradient
       x1="112.49854"
       y1="6.1372099"
       x2="112.49853"
       y2="129.3468"
       id="path1082_2_"
       gradientUnits="userSpaceOnUse"
       gradientTransform="translate(287,-83)">
      <stop
         id="stop193"
         style="stop-color:#ffffff;stop-opacity:0"
         offset="0" />
      <stop
         id="stop195"
         style="stop-color:#ffffff;stop-opacity:0.27450982"
         offset="1" />
      <midPointStop
         offset="0"
         style="stop-color:#FFFFFF"
         id="midPointStop197" />
      <midPointStop
         offset="0.5"
         style="stop-color:#FFFFFF"
         id="midPointStop199" />
      <midPointStop
         offset="1"
         style="stop-color:#000000"
         id="midPointStop201" />
    </linearGradient>
    <linearGradient
       x1="541.33502"
       y1="104.50665"
       x2="606.91248"
       y2="303.14029"
       id="linearGradient2544"
       xlink:href="#path1082_2_"
       gradientUnits="userSpaceOnUse"
       gradientTransform="matrix(-0.3937741,0,0,0.393752,357.51969,122.00151)" />
    <linearGradient
       id="linearGradient3388">
      <stop
         id="stop3390"
         style="stop-color:#000000;stop-opacity:0"
         offset="0" />
      <stop
         id="stop3392"
         style="stop-color:#000000;stop-opacity:0.37113401"
         offset="1" />
    </linearGradient>
    <linearGradient
       x1="490.72305"
       y1="237.72447"
       x2="490.72305"
       y2="183.9644"
       id="linearGradient4416"
       xlink:href="#linearGradient3388"
       gradientUnits="userSpaceOnUse"
       gradientTransform="matrix(0.749107,0,0,0.749107,-35.459862,91.44108)" />
  </defs>
  <g
     transform="translate(-34.777313,-129.80241)"
     id="layer1">
    <g
       transform="matrix(0.8746356,0,0,0.8746356,14.730518,23.408954)"
       id="g2424">
      <path
         d="m 136.89879,121.64318 c -10.1481,24.88044 -16.26895,41.15516 -27.56753,65.29601 6.92745,7.34308 15.43056,15.89448 29.23958,25.55247 -14.84604,-6.10906 -24.97287,-12.24242 -32.54081,-18.60701 -14.460031,30.17307 -37.114733,73.15326 -83.088422,155.75863 36.133776,-20.86066 64.144037,-33.72148 90.248262,-38.62883 -1.12094,-4.82108 -1.75822,-10.03602 -1.71494,-15.47725 l 0.0428,-1.15758 c 0.57336,-23.14996 12.61595,-40.95226 26.88155,-39.74353 14.2656,1.20874 25.35409,20.96664 24.78075,44.11661 -0.10788,4.35609 -0.59919,8.54659 -1.45769,12.43325 25.8208,5.051 53.53155,17.8789 89.17643,38.45733 -7.02848,-12.93991 -13.302,-24.60429 -19.29299,-35.71345 -9.43677,-7.31413 -19.27978,-16.83349 -39.35766,-27.13878 13.80038,3.58592 23.68128,7.72312 31.38324,12.3475 -60.912,-113.40749 -65.84457,-128.477 -86.73264,-177.49537 z"
         id="path2518"
         style="fill:#1793d1;fill-opacity:1;fill-rule:evenodd;stroke:none;stroke-width:1.37194" />
    </g>
  </g>
</svg>
