<?xml version="1.0" encoding="UTF-8"?>
<svg width="35" height="40" fill="none" version="1.1" viewBox="0 0 35 40" xmlns="http://www.w3.org/2000/svg">
 <path d="m33.347 9.576 0.937-2.298s-1.193-1.278-2.642-2.724-4.515-0.595-4.515-0.595l-3.494-3.959h-12.269l-3.493 3.959s-3.067-0.851-4.516 0.595a124 124 0 0 0-2.641 2.724l0.937 2.298-1.192 3.404s3.509 13.273 3.92 14.894c0.81 3.191 1.363 4.425 3.663 6.042s6.476 4.426 7.157 4.851c0.682 0.426 1.534 1.15 2.3 1.15 0.768 0 1.62-0.724 2.301-1.15 0.682-0.425 4.857-3.234 7.157-4.85 2.3-1.618 2.855-2.852 3.664-6.043 0.411-1.621 3.92-14.894 3.92-14.894z" clip-rule="evenodd" fill="url(#a)" fill-rule="evenodd"/>
 <path d="m21.845 7.193c0.511 0 4.303-0.724 4.303-0.724s4.493 5.426 4.493 6.586c0 0.958-0.386 1.334-0.841 1.775q-0.145 0.138-0.292 0.293l-3.37 3.573q-0.05 0.054-0.11 0.113c-0.336 0.337-0.83 0.835-0.482 1.66l0.072 0.17c0.383 0.894 0.856 1.999 0.254 3.118-0.64 1.191-1.737 1.986-2.44 1.854s-2.354-0.993-2.96-1.386c-0.608-0.394-2.532-1.979-2.532-2.585 0-0.506 1.384-1.348 2.056-1.756 0.134-0.082 0.24-0.146 0.3-0.187 0.07-0.047 0.186-0.119 0.329-0.207 0.613-0.381 1.721-1.069 1.75-1.374 0.034-0.376 0.02-0.486-0.474-1.415a20 20 0 0 0-0.356-0.627c-0.47-0.81-0.998-1.716-0.881-2.365 0.132-0.733 1.281-1.153 2.255-1.51l0.355-0.13 1.014-0.38c0.973-0.364 2.053-0.769 2.23-0.85 0.248-0.114 0.184-0.223-0.563-0.293l-0.363-0.038c-0.924-0.098-2.63-0.279-3.459-0.048l-0.538 0.147c-0.931 0.252-2.073 0.56-2.182 0.739l-0.056 0.083c-0.105 0.149-0.173 0.246-0.057 0.879 0.034 0.188 0.105 0.56 0.193 1.018 0.258 1.342 0.659 3.436 0.71 3.906q0.01 0.1 0.022 0.19c0.064 0.525 0.107 0.875-0.503 1.014l-0.16 0.037c-0.688 0.157-1.697 0.389-2.062 0.389s-1.375-0.232-2.064-0.39l-0.158-0.036c-0.61-0.14-0.568-0.489-0.503-1.013l0.022-0.19c0.05-0.472 0.453-2.57 0.71-3.913 0.088-0.456 0.159-0.824 0.193-1.012 0.116-0.633 0.047-0.73-0.057-0.88q-0.027-0.036-0.056-0.083c-0.11-0.178-1.251-0.486-2.183-0.738l-0.538-0.147c-0.829-0.23-2.534-0.05-3.458 0.048l-0.363 0.038c-0.747 0.07-0.811 0.179-0.564 0.292 0.178 0.082 1.258 0.486 2.23 0.85l1.015 0.38 0.355 0.132c0.973 0.356 2.123 0.776 2.255 1.509 0.117 0.649-0.41 1.555-0.882 2.364-0.127 0.22-0.25 0.43-0.355 0.628-0.495 0.93-0.508 1.04-0.474 1.415 0.028 0.305 1.136 0.992 1.75 1.373 0.142 0.09 0.259 0.161 0.328 0.208 0.061 0.041 0.166 0.105 0.3 0.186 0.672 0.41 2.056 1.25 2.056 1.757 0 0.606-1.924 2.191-2.53 2.585-0.608 0.393-2.259 1.255-2.961 1.386-0.703 0.132-1.8-0.663-2.44-1.854-0.603-1.12-0.13-2.224 0.253-3.119l0.072-0.168c0.35-0.826-0.146-1.324-0.482-1.661q-0.06-0.06-0.11-0.113l-3.369-3.573a9 9 0 0 0-0.292-0.292c-0.455-0.442-0.841-0.818-0.841-1.776 0-1.16 4.493-6.586 4.493-6.586s3.791 0.724 4.303 0.724c0.407 0 1.195-0.271 2.016-0.554l0.625-0.212c1.022-0.34 1.704-0.343 1.704-0.343s0.681 2e-3 1.704 0.343q0.31 0.104 0.624 0.212c0.822 0.283 1.61 0.554 2.017 0.554" fill="#fff"/>
 <path d="m21.194 26.384c0.802 0.412 1.37 0.705 1.585 0.84 0.278 0.173 0.109 0.501-0.144 0.68-0.254 0.179-3.659 2.812-3.989 3.103l-0.134 0.12c-0.318 0.287-0.724 0.652-1.012 0.652s-0.695-0.366-1.013-0.652l-0.133-0.12c-0.33-0.29-3.736-2.924-3.989-3.103s-0.423-0.507-0.145-0.68c0.215-0.135 0.784-0.428 1.587-0.841l0.762-0.393c1.2-0.62 2.697-1.149 2.93-1.149s1.73 0.528 2.931 1.149z" fill="#fff"/>
 <defs>
  <linearGradient id="a" x1=".419" x2="34.5" y1="40.199" y2="40.199" gradientTransform="translate(.039)" gradientUnits="userSpaceOnUse">
   <stop stop-color="#FF5601" offset="0"/>
   <stop stop-color="#FF4000" offset=".5"/>
   <stop stop-color="#FF1F01" offset="1"/>
  </linearGradient>
 </defs>
</svg>
