<?xml version="1.0" encoding="UTF-8"?>
<svg width="450" height="407.04" version="1.1" viewBox="0 0 119.06 107.69" xml:space="preserve" xmlns="http://www.w3.org/2000/svg" xmlns:xlink="http://www.w3.org/1999/xlink"><defs><linearGradient id="linearGradient33056"><stop stop-color="#f8f2ff" offset="0"/><stop stop-color="#c1c3e5" offset="1"/></linearGradient><linearGradient id="linearGradient16" x1="89.236" x2="89.236" y1="164.33" y2="310.96" gradientTransform="matrix(.73445 0 0 .73445 -6.0082 -120.69)" gradientUnits="userSpaceOnUse"><stop stop-color="#7204e8" offset=".098431"/><stop stop-color="#0710e8" offset=".90442"/></linearGradient><filter id="filter16363" x="-.026367" y="-.060161" width="1.0527" height="1.1203" color-interpolation-filters="sRGB"><feGaussianBlur stdDeviation="3.5408214"/></filter><filter id="filter17243" x="-.12431" y="-.087629" width="1.2486" height="1.1753" color-interpolation-filters="sRGB"><feGaussianBlur stdDeviation="5.5255376"/></filter><linearGradient id="linearGradient34608" x1="91.133" x2="12.927" y1="33.859" y2="151.69" gradientUnits="userSpaceOnUse" xlink:href="#linearGradient33056"/><linearGradient id="linearGradient41009" x1="44.492" x2="90.554" y1="29.877" y2="104.66" gradientUnits="userSpaceOnUse"><stop stop-color="#2d0793" offset="0"/><stop stop-color="#1c056c" offset="1"/></linearGradient><filter id="filter56934" x="-.072575" y="-.054398" width="1.1452" height="1.1088" color-interpolation-filters="sRGB"><feGaussianBlur stdDeviation="0.94930096"/></filter><filter id="filter59166" x="-.22283" y="-.088718" width="1.4457" height="1.1774" color-interpolation-filters="sRGB"><feGaussianBlur stdDeviation="0.72999998"/></filter><filter id="filter84277" x="-.078195" y="-.1319" width="1.1564" height="1.2638" color-interpolation-filters="sRGB"><feGaussianBlur stdDeviation="7.9744242"/></filter><linearGradient id="linearGradient86330" x1="91.133" x2="44.779" y1="33.859" y2="163.04" gradientUnits="userSpaceOnUse" xlink:href="#linearGradient33056"/></defs><path d="m41.41 0c-9.5099 0-13.921 1.6209-19.047 10.5l-18.803 32.691s-3.5597 4.5935-3.5597 10.643c0 6.0491 3.5597 10.699 3.5597 10.699l18.857 32.662c5.1263 8.879 9.5379 10.5 19.048 10.5h36.134c9.5099 0 13.921-1.6209 19.047-10.5l18.857-32.662s3.5597-4.6501 3.5597-10.699c0-6.0491-3.5597-10.643-3.5597-10.643l-18.803-32.691c-5.1263-8.879-9.5379-10.5-19.048-10.5z" fill="url(#linearGradient16)"/><path transform="scale(.26458)" d="m63.854 203.47c-1.49e-4 0.01953-0.001954 0.0391-0.001954 0.05859 0 0.06013 0.001538 0.11963 0.001954 0.17969 4.53e-4 0.06531 2.5e-5 0.13015 0.001953 0.19531 0.007559 0.15575 0.016005 0.31227 0.027343 0.46875 0.003251 0.04917 0.009893 0.09754 0.013672 0.14648 1.14e-4 0.00129-1.13e-4 0.00274 0 0.00391 0.007559 0.06263 0.011973 0.12499 0.019532 0.1875 0.015118 0.15799 0.037806 0.31781 0.058593 0.47656 0.007559 0.04649 0.015879 0.09234 0.023438 0.13868 0.007559 0.06066 0.014052 0.1212 0.025391 0.18164 0.030236 0.16924 0.05986 0.33849 0.097656 0.50781 0.018897 0.09562 0.043729 0.193 0.066406 0.28711 0.041575 0.17272 0.085254 0.34605 0.13477 0.51953 0.030236 0.0994 0.06156 0.19823 0.091796 0.29687 0.050646 0.16184 0.10157 0.32263 0.16016 0.48438 0.046866 0.13122 0.098925 0.26143 0.14844 0.39258 0.050268 0.12816 0.097982 0.25701 0.1543 0.38476 0.072567 0.17443 0.15469 0.34598 0.23633 0.51758 0.044599 0.09222 0.085883 0.18594 0.13086 0.2793 0.13304 0.26766 0.27403 0.53066 0.42578 0.79297l54.043 93.604 15.166 26.27 0.00781-0.0039 4.8691 8.4336v0.00195c0.06198 0.10715 0.13068 0.20762 0.19531 0.3125 0.13493 0.22103 0.27214 0.43815 0.41406 0.64649 0.01134 0.01398 0.01992 0.02872 0.03125 0.04297 0.10961 0.1593 0.22104 0.31846 0.33594 0.47265 0.07068 0.09423 0.14108 0.18401 0.21289 0.27539 0.02268 0.02797 0.04606 0.05613 0.06836 0.08399 0.08013 0.10016 0.16175 0.19936 0.24414 0.29687 0.09714 0.11407 0.1971 0.22273 0.29688 0.33204 0.01134 0.01247 0.02186 0.02685 0.0332 0.03906 0.07786 0.08504 0.15847 0.16767 0.23633 0.25195 0.10658 0.1098 0.21499 0.21566 0.32422 0.32031 0.00756 0.0087 0.01978 0.01865 0.02734 0.02735 0.07786 0.07408 0.15463 0.14851 0.23438 0.2207 0.01511 0.01285 0.03011 0.02464 0.04296 0.03711 0.10016 0.08973 0.20265 0.17607 0.30469 0.26172 0.01512 0.01171 0.02628 0.02344 0.04102 0.03515 0.08579 0.07144 0.1717 0.14253 0.25976 0.21094 0.00756 0.00605 0.01393 0.01153 0.02149 0.01758 0.09751 0.07597 0.1959 0.1502 0.29492 0.22266 0.01512 0.01133 0.03025 0.02381 0.04688 0.03515 0.09826 0.07408 0.19993 0.14486 0.30273 0.21289 0.0189 0.01248 0.03768 0.02306 0.05469 0.03516 0.07597 0.0508 0.15141 0.10156 0.22851 0.15039 0.02646 0.01739 0.05444 0.03592 0.08203 0.05273 0.11301 0.07106 0.2281 0.14014 0.34375 0.20704 0.03024 0.01852 0.06396 0.03628 0.09571 0.05468 0.03401 0.01966 0.06874 0.03951 0.10351 0.0586 0.04271 0.02419 0.08582 0.04902 0.12891 0.07226 0.13871 0.07144 0.27665 0.14253 0.41797 0.21094 0.03779 0.01776 0.07309 0.03362 0.10937 0.05078 0.02268 0.01021 0.04329 0.01909 0.06446 0.0293 0.04497 0.02079 0.08941 0.04216 0.13476 0.0625 0.14476 0.06538 0.29253 0.12778 0.44141 0.1875 0.02645 0.01058 0.05324 0.02067 0.08008 0.03125 0.03401 0.0136 0.07031 0.0276 0.10546 0.04101 0.03893 0.01512 0.07826 0.03022 0.11719 0.04493 0.16101 0.05971 0.32278 0.11814 0.48828 0.16992 0.03024 0.0102 0.06516 0.01909 0.09766 0.02929 0.00756 0.00246 0.01588 0.00517 0.02344 0.00782 0.05367 0.01663 0.10686 0.03363 0.16015 0.04883 0.17046 0.05026 0.3424 0.09873 0.51758 0.14257 0.03024 0.00718 0.05841 0.01273 0.08789 0.01953 0.00378 9.6e-4 0.00794 0.00307 0.01172 0.00391 0.06765 0.0155 0.1339 0.02984 0.20117 0.04492 0.16555 0.03704 0.33072 0.07524 0.5 0.10547 0.1372 0.02495 0.27592 0.04373 0.41407 0.06641 0.13606 0.02041 0.27137 0.04347 0.41015 0.05859 0.02646 0.00331 0.05123 0.00479 0.07617 0.00781 0.01512 0.00157 0.02628 0.0025 0.04102 0.00391 0.14929 0.01663 0.29894 0.03099 0.44922 0.04297 0.10242 0.00756 0.20308 0.01978 0.30664 0.02734 0.2982 0.0189 0.59727 0.02539 0.90039 0.02539h108.09 30.332v-0.00195h9.7402c0.15799 0 0.3137-0.01033 0.47071-0.01563 0.14437-0.00453 0.28989-0.00535 0.43359-0.01367 0.09486-0.00567 0.18985-0.0155 0.2832-0.02343h0.00195c0.00756-5.8e-4 0.01588-0.00139 0.02344-0.00196 0.18482-0.01474 0.37003-0.031 0.55274-0.05273 0.00378-5.5e-4 0.00806-0.0014 0.01562-0.00195 0.13871-0.01663 0.27364-0.038 0.41016-0.0586 0.01134-0.00148 0.01796-0.00256 0.0293-0.0039 0.12661-0.01928 0.25323-0.03983 0.3789-0.0625 0.00193-3.5e-4 0.00403 3.4e-4 0.00781 0 0.06615-0.0121 0.12993-0.02723 0.19532-0.04102 0.09524-0.0189 0.19066-0.0363 0.28515-0.05859 0.00756-0.00147 0.01197-0.00473 0.01953-0.00586 0.10092-0.02268 0.20258-0.0433 0.30274-0.06836 0.16554-0.04139 0.32843-0.08715 0.49023-0.13477 0.00756-0.00266 0.01783-0.00517 0.02539-0.00781 0.09411-0.02797 0.1879-0.05593 0.28125-0.08594 0.16517-0.05318 0.32731-0.11036 0.48828-0.16992 0.1013-0.03742 0.20258-0.07697 0.30274-0.11719 0.00193-7.6e-4 0.0039-0.00118 0.0039-0.00195 0.14212-0.05707 0.28306-0.11579 0.42188-0.17774 0.00378-0.00213 0.00807-0.00554 0.01562-0.00781 0.08202-0.03666 0.16289-0.07495 0.24415-0.11328 0.02267-0.0102 0.04328-0.01909 0.06445-0.0293 0.00314-0.00153 0.00794-0.00397 0.01172-0.00586 0.13115-0.06387 0.26081-0.1308 0.38867-0.19921 0.00756-0.00302 0.01002-0.00479 0.01758-0.00782 0.11036-0.059 0.21927-0.12093 0.32812-0.18359 0.00204-0.00117 0.00404-0.00286 0.00781-0.00391 0.10886-0.06274 0.21607-0.12526 0.32227-0.1914 0.00378-0.00342 0.01185-0.00832 0.01563-0.01172 0.10885-0.06781 0.21688-0.13755 0.32421-0.20899 0.01512-0.00945 0.03012-0.01789 0.04297-0.02734 0.00378-0.00263 0.00794-0.00517 0.01172-0.00781 0.0189-0.0121 0.03422-0.02502 0.05274-0.03711 0.08012-0.05518 0.15929-0.11094 0.23828-0.16797 0.12321-0.08908 0.24466-0.1809 0.36523-0.27539 0.00144-0.00113 0.00259-0.00289 0.00391-0.00391 0.05669-0.04471 0.11361-0.09114 0.16992-0.13672 0.02646-0.02305 0.05639-0.0453 0.08398-0.06836l0.00196-0.00195c0.13077-0.10862 0.26119-0.21871 0.38867-0.33398 0.07257-0.06573 0.14417-0.13337 0.21484-0.20118 0.00756-0.00642 0.01002-0.0131 0.01758-0.01953 0.11868-0.11319 0.23591-0.22837 0.35156-0.34765 0.00356-0.00366 0.00794-0.00599 0.01172-0.00977 0.07181-0.07445 0.14064-0.15217 0.21094-0.22851 0.00378-0.00454 0.00807-0.00914 0.01563-0.01368 0.11036-0.12007 0.21921-0.24136 0.32617-0.36718 0.00121-0.00139 0.00288-0.00264 0.0039-0.00391 0.08277-0.09725 0.16402-0.19683 0.24414-0.29687 0.09487-0.11853 0.19099-0.23598 0.28321-0.35938 0.11036-0.14729 0.21524-0.30021 0.32031-0.45312 0.00378-0.00643 0.00807-0.01273 0.01562-0.01954 0.05216-0.07615 0.10681-0.14866 0.15821-0.22656l0.00195-0.00195c7.9e-4 -0.0012 0.00116-0.00284 0.00195-0.00391 0.16555-0.24873 0.32317-0.50528 0.47461-0.76758l0.00196-0.00195 25.455-44.088 40.902-70.842h-0.00391l2.8535-4.9414 0.00195-0.00196 4.8672-8.4336 0.00195-0.00195c0.00378-0.00907 0.00611-0.01865 0.01367-0.02735 0.26608-0.46306 0.49595-0.92557 0.70118-1.3887 0.01889-0.04437 0.04164-0.08829 0.06054-0.13281 0.20032-0.46461 0.36661-0.92934 0.50781-1.3926 0.0189-0.06323 0.04046-0.12603 0.0586-0.18945 0.13682-0.47498 0.24163-0.94797 0.31836-1.4199 0.00756-0.0553 0.01978-0.11061 0.02734-0.16602 0.07219-0.4862 0.11366-0.96985 0.125-1.4512 0.00144-0.05991 0.00349-0.11971 0.00391-0.17969 3.8e-4 -0.04912-0.00757-0.09741-0.00782-0.14648h-322.29z" fill="#1f0774" filter="url(#filter16363)" style="mix-blend-mode:normal"/><path d="m42.509 16.488v0.0016h-2.5776c-1.361 0-2.3509 0.6601-2.9543 1.7053l-1.2888 2.2314-5.4462 9.433-10.822 18.744h1e-3l-2.0433 3.5393-5.2e-4 5.19e-4c-0.01 0.01687-0.018 0.03418-0.0274 0.05116-0.0425 0.07603-0.0816 0.15185-0.11782 0.22789-6e-3 0.0117-0.0106 0.02344-0.016 0.03514-0.0164 0.03453-0.033 0.06888-0.0481 0.10387-7.4e-4 0.0017-1e-3 0.0034-2e-3 0.0052-0.0108 0.02531-0.0204 0.05066-0.0305 0.07596-4e-3 0.01046-8e-3 0.02108-0.0124 0.03152-0.0124 0.0316-0.0243 0.06328-0.0357 0.09508-6e-5 1.56e-4 5e-5 3.63e-4 0 5.16e-4 -0.0129 0.03622-0.0246 0.07234-0.0362 0.10852-2e-3 0.0052-4e-3 0.0103-5e-3 0.0155-9e-3 0.0291-0.0179 0.05865-0.0269 0.08785-5e-4 0.0017-1e-3 0.0034-2e-3 0.0052-0.01 0.03465-0.0183 0.06927-0.0269 0.10387-1e-3 0.0058-3e-3 0.01172-5e-3 0.01757-7e-3 0.0276-0.0136 0.05468-0.0196 0.08268-1e-3 0.0062-2e-3 0.01239-4e-3 0.0186-7e-3 0.03451-0.0131 0.06891-0.0191 0.10335-6.8e-4 0.0038-1e-3 0.0076-2e-3 0.01137-5e-3 0.0291-0.01 0.05813-0.014 0.08733-2.7e-4 0.0019-2.5e-4 0.0038-5.2e-4 0.0057-4e-3 0.03125-8e-3 0.06236-0.0119 0.09354-7.6e-4 7e-3 -2e-3 0.01415-3e-3 0.02119-4e-3 0.0323-7e-3 0.06455-9e-3 0.09715-1e-3 0.01329-1e-3 0.02651-2e-3 0.03979-5.6e-4 0.0098-1e-3 0.01964-2e-3 0.02946-7.1e-4 0.01534-2e-3 0.03063-2e-3 0.04599-1e-3 0.03531-2e-3 0.07105-2e-3 0.10645 0 0.01591 4.1e-4 0.03165 5.2e-4 0.04754 1.2e-4 0.01728 1e-5 0.03444 5.2e-4 0.05168 2e-3 0.04121 4e-3 0.08262 7e-3 0.12402 8.6e-4 0.01301 3e-3 0.02581 4e-3 0.03876 3e-5 3.41e-4 -3e-5 6.9e-4 0 1e-3 2e-3 0.01657 3e-3 0.03307 5e-3 0.04961 4e-3 0.0418 0.01 0.08409 0.0155 0.12609 2e-3 0.0123 4e-3 0.02443 6e-3 0.03669 2e-3 0.01605 4e-3 0.03207 7e-3 0.04806 8e-3 0.04478 0.0158 0.08956 0.0258 0.13436 5e-3 0.0253 0.0116 0.05107 0.0176 0.07597 0.011 0.0457 0.0226 0.09156 0.0357 0.13746 8e-3 0.0263 0.0163 0.05245 0.0243 0.07855 0.0134 0.04282 0.0269 0.08536 0.0424 0.12816 0.0124 0.03472 0.0262 0.06917 0.0393 0.10387 0.0133 0.03391 0.0259 0.068 0.0408 0.1018 0.0192 0.04615 0.0409 0.09154 0.0625 0.13694 0.0118 0.0244 0.0227 0.0492 0.0346 0.0739 0.0352 0.07082 0.0725 0.14041 0.11265 0.20981l14.299 24.766 4.0127 6.9505 2e-3 -1e-3 1.2883 2.2314v5.2e-4c0.0164 0.0284 0.0346 0.0549 0.0517 0.0827 0.0357 0.0585 0.072 0.11592 0.10955 0.17105 3e-3 4e-3 5e-3 8e-3 8e-3 0.0114 0.029 0.0422 0.0585 0.0843 0.0889 0.12506 0.0187 0.0249 0.0378 0.0487 0.0568 0.0729 6e-3 7e-3 0.0117 0.0149 0.0176 0.0222 0.0212 0.0265 0.0428 0.0528 0.0646 0.0786 0.0257 0.0302 0.0522 0.0589 0.0786 0.0878 3e-3 3e-3 6e-3 7e-3 9e-3 0.0103 0.0206 0.0225 0.0419 0.0444 0.0625 0.0667 0.0282 0.029 0.0569 0.0571 0.0858 0.0847l7e-3 7e-3c0.0206 0.0196 0.0409 0.0393 0.062 0.0584 4e-3 3e-3 8e-3 7e-3 0.0114 0.01 0.0265 0.0237 0.0536 0.0466 0.0806 0.0692 4e-3 3e-3 7e-3 6e-3 0.0109 9e-3 0.0227 0.0189 0.0454 0.0377 0.0687 0.0558 2e-3 2e-3 4e-3 3e-3 6e-3 5e-3 0.0258 0.0201 0.0518 0.0397 0.078 0.0589 4e-3 3e-3 8e-3 6e-3 0.0124 9e-3 0.026 0.0196 0.0529 0.0383 0.0801 0.0563 5e-3 3e-3 0.01 6e-3 0.0145 9e-3 0.0201 0.0134 0.0401 0.0269 0.0605 0.0398 7e-3 5e-3 0.0144 9e-3 0.0217 0.0139 0.0299 0.0188 0.0603 0.0371 0.0909 0.0548 8e-3 5e-3 0.0169 0.01 0.0253 0.0145 9e-3 5e-3 0.0182 0.0105 0.0274 0.0155 0.0113 6e-3 0.0227 0.013 0.0341 0.0191 0.0367 0.0189 0.0732 0.0377 0.11059 0.0558 0.01 5e-3 0.0193 9e-3 0.0289 0.0134 6e-3 3e-3 0.0114 5e-3 0.017 8e-3 0.0119 5e-3 0.0237 0.0112 0.0357 0.0165 0.0383 0.0173 0.0774 0.0338 0.11679 0.0496 7e-3 3e-3 0.0141 5e-3 0.0212 8e-3 9e-3 4e-3 0.0186 7e-3 0.0279 0.0109 0.0103 4e-3 0.0207 8e-3 0.031 0.0119 0.0426 0.0158 0.0854 0.0313 0.12919 0.045 8e-3 3e-3 0.0172 5e-3 0.0258 8e-3 2e-3 6.5e-4 4e-3 1e-3 6e-3 2e-3 0.0142 4e-3 0.0283 9e-3 0.0424 0.0129 0.0451 0.0133 0.0906 0.0261 0.13695 0.0377 8e-3 2e-3 0.0155 3e-3 0.0233 5e-3 1e-3 2.6e-4 2e-3 7.8e-4 3e-3 1e-3 0.0179 4e-3 0.0359 8e-3 0.0537 0.0119 0.0438 0.01 0.0875 0.0199 0.13229 0.0279 0.0363 7e-3 0.073 0.0116 0.10955 0.0176 0.036 5e-3 0.0718 0.0115 0.10852 0.0155 7e-3 8.8e-4 0.0135 1e-3 0.0201 2e-3 4e-3 4.2e-4 7e-3 6.3e-4 0.0109 1e-3 0.0395 4e-3 0.0791 8e-3 0.11886 0.0114 0.0271 2e-3 0.0537 5e-3 0.0811 7e-3 0.0789 5e-3 0.15803 7e-3 0.23823 7e-3h36.623v-5.1e-4h2.5771c0.0418 0 0.083-3e-3 0.12454-4e-3 0.0382-1e-3 0.0767-1e-3 0.11472-4e-3 0.0251-1e-3 0.0502-4e-3 0.0749-6e-3h5.2e-4c2e-3 -1.6e-4 4e-3 -3.7e-4 6e-3 -5.2e-4 0.0489-4e-3 0.0979-8e-3 0.14624-0.0139 1e-3 -1.5e-4 2e-3 -3.7e-4 4e-3 -5.2e-4 0.0367-4e-3 0.0724-0.0101 0.10852-0.0155 3e-3 -3.9e-4 5e-3 -6.4e-4 8e-3 -1e-3 0.0335-5e-3 0.067-0.0105 0.10025-0.0165 5.1e-4 -9e-5 1e-3 9e-5 2e-3 0 0.0175-3e-3 0.0344-7e-3 0.0517-0.0109 0.0252-5e-3 0.0505-0.01 0.0755-0.0155 2e-3 -3.9e-4 3e-3 -1e-3 5e-3 -1e-3 0.0267-6e-3 0.0536-0.0115 0.0801-0.0181 0.0438-0.011 0.0869-0.0231 0.12971-0.0357 2e-3 -7e-4 5e-3 -1e-3 7e-3 -2e-3 0.0249-7e-3 0.0497-0.0148 0.0744-0.0227 0.0437-0.0141 0.0866-0.0292 0.12919-0.045 0.0268-0.01 0.0536-0.0204 0.0801-0.031 5.1e-4 -2e-4 1e-3 -3.1e-4 1e-3 -5.1e-4 0.0376-0.0151 0.0749-0.0306 0.11163-0.047 1e-3 -5.7e-4 2e-3 -2e-3 4e-3 -2e-3 0.0217-0.01 0.0431-0.0198 0.0646-0.03 6e-3 -3e-3 0.0114-5e-3 0.017-8e-3 8.3e-4 -4.1e-4 2e-3 -1e-3 3e-3 -2e-3 0.0347-0.0169 0.069-0.0346 0.10283-0.0527 2e-3 -8e-4 3e-3 -1e-3 5e-3 -2e-3 0.0292-0.0156 0.058-0.032 0.0868-0.0486 5.4e-4 -3.1e-4 1e-3 -7.3e-4 2e-3 -1e-3 0.0288-0.0166 0.0572-0.0331 0.0853-0.0506 1e-3 -9.1e-4 3e-3 -2e-3 4e-3 -3e-3 0.0288-0.0179 0.0574-0.0364 0.0858-0.0553 4e-3 -2e-3 8e-3 -5e-3 0.0114-7e-3 1e-3 -7e-4 2e-3 -1e-3 3e-3 -2e-3 5e-3 -3e-3 9e-3 -7e-3 0.0139-0.01 0.0212-0.0146 0.0422-0.0293 0.0631-0.0444 0.0326-0.0236 0.0647-0.0479 0.0966-0.0729 3.8e-4 -3e-4 6.5e-4 -7.4e-4 1e-3 -1e-3 0.015-0.0118 0.0301-0.0241 0.045-0.0362 7e-3 -6e-3 0.0149-0.012 0.0222-0.0181l5.2e-4 -5.2e-4c0.0346-0.0287 0.0691-0.0579 0.10283-0.0884 0.0192-0.0174 0.0381-0.0353 0.0568-0.0532l5e-3 -5e-3c0.0314-0.0299 0.0624-0.0604 0.093-0.092 9.4e-4 -9.7e-4 2e-3 -2e-3 3e-3 -3e-3 0.019-0.0197 0.0372-0.0403 0.0558-0.0605l4e-3 -4e-3c0.0292-0.0318 0.058-0.0639 0.0863-0.0971 3.2e-4 -3.7e-4 7.3e-4 -6.7e-4 1e-3 -1e-3 0.0219-0.0257 0.0434-0.0521 0.0646-0.0785 0.0251-0.0314 0.0505-0.0624 0.0749-0.0951 0.0292-0.039 0.0569-0.0794 0.0847-0.11989 1e-3 -2e-3 2e-3 -3e-3 4e-3 -5e-3 0.0138-0.0202 0.0283-0.0393 0.0419-0.06l5.2e-4 -5.2e-4c2.1e-4 -3.2e-4 3.1e-4 -7.1e-4 5.2e-4 -1e-3 0.0438-0.0658 0.0855-0.13368 0.12557-0.20308l5.2e-4 -5.2e-4 6.735-11.665 10.822-18.744h-1e-3l0.755-1.3074 5.1e-4 -5.16e-4 1.2878-2.2314 5.2e-4 -5.16e-4c1e-3 -0.0024 2e-3 -0.0049 4e-3 -0.0072 0.0704-0.12252 0.13122-0.24489 0.18552-0.36742 5e-3 -0.01174 0.011-0.02336 0.016-0.03514 0.053-0.12293 0.097-0.24589 0.13436-0.36845 5e-3 -0.01673 0.0107-0.03334 0.0155-0.05012 0.0362-0.12567 0.0639-0.25082 0.0842-0.37569 2e-3 -0.01463 5e-3 -0.02927 7e-3 -0.04393 0.0191-0.12864 0.0301-0.25661 0.0331-0.38396 3.8e-4 -0.01585 8.9e-4 -0.03167 1e-3 -0.04754 1e-3 -0.12702-6e-3 -0.2535-0.0207-0.37879-2e-3 -0.01965-5e-3 -0.03923-7e-3 -0.05891-0.0172-0.12832-0.0422-0.25539-0.0749-0.38137-4e-3 -0.01708-9e-3 -0.03406-0.0134-0.05116-0.0369-0.1332-0.0825-0.26481-0.13591-0.39481-5e-3 -0.01244-0.01-0.02476-0.015-0.03721-0.0615-0.14517-0.13184-0.28851-0.2129-0.42892l-5.2e-4 -5.16e-4 -1.2878-2.2314-0.75499-1.3079h5.2e-4l-10.823-18.743-6.735-11.665c-0.0405-0.07015-0.0835-0.13814-0.12765-0.20464-0.0132-0.0209-0.0274-0.04026-0.0413-0.06046-0.029-0.04218-0.0579-0.08436-0.0884-0.12506-0.0244-0.0327-0.0499-0.06369-0.0749-0.09508-0.0212-0.0265-0.0428-0.05275-0.0646-0.07855-0.0286-0.0337-0.0574-0.06638-0.0873-0.09818-0.0206-0.0225-0.0418-0.04466-0.0625-0.06666-0.0306-0.0316-0.0617-0.06208-0.093-0.09198-0.0205-0.0196-0.0408-0.03959-0.062-0.0584-0.0338-0.0305-0.0683-0.05967-0.10283-0.08837-0.0227-0.0189-0.0455-0.03761-0.0687-0.05581-0.0319-0.025-0.0641-0.04926-0.0966-0.07286-0.0264-0.0191-0.053-0.03803-0.0801-0.05633-0.032-0.0216-0.0645-0.04223-0.0971-0.06253-0.03-0.0188-0.0603-0.03708-0.091-0.05478-0.0288-0.0166-0.0576-0.03298-0.0868-0.04857-0.0364-0.0194-0.0732-0.03823-0.11059-0.05633-0.0271-0.013-0.0543-0.02542-0.0816-0.03772-0.0384-0.0173-0.0774-0.03381-0.11679-0.04961-0.0266-0.0106-0.0533-0.021-0.0801-0.03101-0.0426-0.0158-0.0855-0.03086-0.12919-0.04496-0.0247-0.0079-0.0495-0.01574-0.0744-0.02274-0.0451-0.0133-0.0906-0.02612-0.13694-0.03772-0.0266-0.0066-0.0533-0.01209-0.0801-0.01809-0.0438-0.0098-0.0875-0.01991-0.13229-0.02791-0.0363-0.0067-0.0729-0.01157-0.10956-0.01757-0.036-0.0054-0.0718-0.0115-0.10852-0.0155-0.0495-0.0065-0.0998-0.01047-0.14986-0.01447-0.0272-2e-3 -0.0538-0.0047-0.0811-0.0067-0.0789-5e-3 -0.1581-0.0072-0.23823-0.0072h-28.598z" fill="url(#linearGradient41009)"/><g fill="#1f0774"><path transform="scale(.26458)" d="m376.12 202.8-11.84 41.883h4.3535c6.0765 0 8.5817-3.0696 11.299-7.2188l11.895-20.605c2.8348-4.9099 3.8346-7.9002 3.8457-14.059h-19.553z" filter="url(#filter56934)" style="mix-blend-mode:normal"/><path transform="scale(.26458)" d="m53.986 203.47c-0.1321 5.8146 2.9264 11.536 9.207 22.414l12.398 21.473 54.52 94.434c0.70322 1.218 7.6022 13.014 21.861 13.014 6.4022 0 8.6875-3.708 8.6875-7.4023v-88.062-8.25-47.619h-106.67z" filter="url(#filter17243)" style="mix-blend-mode:normal"/><path transform="scale(.26458)" d="m335.71 93.172v19.678 0.07031h3.2324c3.3392 0 6.9187-2.1655 2.7383-9.4062l-5.9707-10.342z" filter="url(#filter59166)"/></g><g><path d="m41.507 13.846c-3.2729-0.0336-5.289 0.48466-7.2966 3.962l-5.531 9.5803-11.959 20.714c-3.2466 5.6233-3.2576 6.0201 0 11.662l3.28 5.6817 14.425 24.985c0.18606 0.32228 2.0114 3.4432 5.7841 3.4432 1.6939 0 2.2985-0.98095 2.2985-1.9584v-25.482c0-1.2852 0.58681-1.6802 1.9835-1.6802v-0.01402l53.044 3.74e-4c1.6077 0 2.2703-0.81203 2.9892-1.9098l3.1475-5.452c0.75003-1.2991 1.0146-2.0904 1.0175-3.7198 9e-3 -4.3197-2.8737-5.0376-3.7491-5.0376h-56.449c-1.3966 0-1.9835-0.39503-1.9835-1.6802v-15.383c0-1.2852 0.58681-1.6802 1.9835-1.6802h45.187c0.88348 0 1.8306-0.57284 0.72454-2.4886l-5.531-9.5803c-2.1415-3.7091-4.293-4.0517-7.9688-3.9487h-34.725c-0.22974-0.0068-0.45359-0.01103-0.67178-0.01328z" fill="url(#linearGradient34608)"/><path transform="scale(.26458)" d="m191 62.312-30.332 0.001953v0.005859h-9.7422c-5.1439 0-8.8852 2.4949-11.166 6.4453l-4.8711 8.4336-20.584 35.652-40.902 70.842h0.003906l-7.7227 13.377-0.001953 0.00196c-0.036801 0.0638-0.067906 0.12916-0.10352 0.19335-0.16048 0.28735-0.30829 0.57394-0.44531 0.86133-0.0211 0.0442-0.040046 0.0886-0.060547 0.13282-0.0618 0.13049-0.12484 0.26031-0.18164 0.39257-3e-3 7e-3 -0.004813 0.01303-0.007813 0.01954-0.0408 0.0957-0.077004 0.19145-0.11523 0.2871-0.0154 0.0395-0.031375 0.0797-0.046875 0.11914-0.0469 0.11944-0.091696 0.23919-0.13477 0.35938v0.00195c-0.0488 0.13691-0.092998 0.2734-0.13672 0.41016-6e-3 0.0196-0.013632 0.03889-0.019532 0.05859-0.0348 0.10998-0.067602 0.22166-0.10156 0.33203-2e-3 7e-3 -0.003859 0.01294-0.00586 0.01954-0.037 0.13097-0.069102 0.26178-0.10156 0.39257-5e-3 0.0221-0.012178 0.04431-0.017578 0.06641-0.0253 0.10432-0.051519 0.20668-0.074219 0.3125-5e-3 0.0235-0.008972 0.04681-0.013672 0.07031-0.0272 0.13044-0.049565 0.26045-0.072265 0.39063-3e-3 0.0143-0.004813 0.02867-0.007813 0.04297-0.0189 0.10998-0.037634 0.2197-0.052734 0.33007-1e-3 7e-3 -8.83e-4 0.01439-0.001953 0.02149-0.0165 0.1181-0.032022 0.23567-0.044922 0.35351-3e-3 0.0266-0.006766 0.05348-0.009766 0.08008-0.0151 0.12208-0.027656 0.24398-0.035156 0.36719-4e-3 0.0502-0.004813 0.10021-0.007813 0.15039-2e-3 0.0371-0.005812 0.0742-0.007812 0.11133-3e-3 0.058-0.005813 0.11577-0.007813 0.17383-5e-3 0.13345-0.007812 0.26855-0.007812 0.40234 0 0.0601 0.001953 0.11961 0.001953 0.17969 4.5e-4 0.0653 3e-6 0.13016 0.001953 0.19531 8e-3 0.15576 0.013991 0.31228 0.025391 0.46875 3e-3 0.0492 0.008972 0.09759 0.013672 0.14648 1.1e-4 0.00101-1.1e-4 0.00291 0 0.00391 6e-3 0.0626 0.011278 0.125 0.017578 0.1875 0.0155 0.15799 0.035893 0.31782 0.058593 0.47656 0.007001 0.0465 0.014485 0.09231 0.021485 0.13868 9e-3 0.0607 0.016644 0.12122 0.027344 0.18164 0.0287 0.16925 0.059856 0.33849 0.097656 0.50781 0.0208 0.0956 0.043706 0.193 0.066406 0.28711 0.0416 0.17272 0.085296 0.34605 0.13477 0.51953 0.0287 0.0994 0.061597 0.19822 0.091797 0.29687 0.030629 0.09797 0.065147 0.19533 0.097656 0.29297l244.1-140.93c-0.0643-0.073063-0.12695-0.1481-0.19336-0.21875-0.07789-0.085-0.15786-0.1688-0.23633-0.25195-0.11573-0.11943-0.23307-0.23465-0.35156-0.34766-0.07767-0.0741-0.15413-0.14964-0.23437-0.2207-0.12762-0.11527-0.25802-0.22551-0.38868-0.33398-0.08568-0.0714-0.17211-0.14215-0.25976-0.21094-0.12042-0.0945-0.24225-0.18619-0.36524-0.27539-0.09981-0.072201-0.20038-0.14372-0.30273-0.21289-0.12091-0.0816-0.24394-0.1596-0.36719-0.23633-0.11331-0.0711-0.2279-0.14013-0.34375-0.20703-0.10866-0.062701-0.21772-0.12463-0.32812-0.18359-0.13754-0.0733-0.27681-0.14448-0.41797-0.21289-0.10258-0.0491-0.20538-0.096098-0.3086-0.14258-0.14513-0.0654-0.2926-0.12778-0.4414-0.1875-0.10042-0.0401-0.20156-0.079397-0.30274-0.11719-0.16102-0.059701-0.32319-0.11663-0.48828-0.16992-0.09316-0.0299-0.18698-0.059538-0.28125-0.085938-0.17052-0.0503-0.34258-0.098708-0.51757-0.14258-0.10043-0.0249-0.20149-0.045659-0.30274-0.068359-0.16551-0.037-0.33064-0.075199-0.5-0.10547-0.13727-0.0253-0.27569-0.043706-0.41406-0.066406-0.13617-0.0204-0.27137-0.043494-0.41016-0.058594-0.18717-0.0246-0.37701-0.039588-0.5664-0.054688-0.10262-8e-3 -0.20324-0.01779-0.30664-0.02539-0.29813-0.0189-0.59754-0.027344-0.9004-0.027344h-108.09z" fill="#1f0774" filter="url(#filter84277)"/><path d="m41.507 13.846c-3.2729-0.0336-5.289 0.48466-7.2966 3.962l-5.531 9.5803-11.959 20.714c-3.2466 5.6233-3.2576 6.0201 0 11.662l3.28 5.6817 14.425 24.985c0.18606 0.32228 2.0114 3.4432 5.7841 3.4432 1.6939 0 2.2985-0.98095 2.2985-1.9584v-25.482c0-1.2852 0.58681-1.6802 1.9835-1.6802v-0.01402l53.044 3.74e-4c1.6077 0 2.2703-0.81203 2.9892-1.9098l3.1475-5.452c0.75003-1.2991 1.0146-2.0904 1.0175-3.7198 9e-3 -4.3197-2.8737-5.0376-3.7491-5.0376h-56.449c-1.3966 0-1.9835-0.39503-1.9835-1.6802v-15.383c0-1.2852 0.58681-1.6802 1.9835-1.6802h45.187c0.88348 0 1.8306-0.57284 0.72454-2.4886l-5.531-9.5803c-2.1415-3.7091-4.293-4.0517-7.9688-3.9487h-34.725c-0.22974-0.0068-0.45359-0.01103-0.67178-0.01328z" fill="url(#linearGradient86330)"/></g></svg>
