<?xml version="1.0" encoding="UTF-8"?>
<svg width="128" height="128" fill="none" version="1.1" viewBox="0 0 128 128" xml:space="preserve" xmlns="http://www.w3.org/2000/svg" xmlns:android="http://schemas.android.com/apk/res/android"><g><circle cx="64" cy="64" r="64" fill="#282c37" style="paint-order:stroke fill markers"/><path d="m86.47 75.211q-3.3105 0-5.8891-1.4636-2.5961-1.4984-4.0597-4.0597-1.4287-2.5961-1.4287-5.8194 0-3.1711 1.4287-5.7672 1.4636-2.5961 4.0597-4.0597 2.5961-1.4984 5.8891-1.4984 3.2582 0 5.8543 1.4984 2.5961 1.4636 4.0074 4.0597 1.4636 2.5961 1.4636 5.7672 0 3.2233-1.4636 5.8194-1.4287 2.5438-4.0074 4.0597-2.5961 1.4636-5.8543 1.4636zm0-5.0528q1.5855 0 2.9271-0.74921 1.3416-0.74921 2.1257-2.1779 0.80149-1.4287 0.80149-3.3453 0-1.8817-0.80149-3.3105-0.80149-1.4287-2.1257-2.1779-1.3416-0.74921-2.9271-0.74921-1.5855 0-2.9271 0.74921-1.3416 0.74921-2.1779 2.1779-0.80148 1.4287-0.80148 3.3105 0 1.8817 0.80148 3.3453 0.83633 1.4287 2.1779 2.1779 1.3416 0.74921 2.9271 0.74921z" fill="#eed7f4" stroke-width="1.7424"/><path d="m40.978 44.13c-3.273 0-5.9009 1.1467-7.9077 3.3924-1.9351 2.2218-2.9146 5.2559-2.9146 9.0544v18.634h7.3821v-18.085c0-3.8224 1.6006-5.7576 4.8019-5.7576 3.5358 0 5.3275 2.2935 5.3275 6.8326v9.8906h7.3343v-9.8906c0-4.5392 1.7679-6.8326 5.3275-6.8326 3.2013 0 4.802 1.9351 4.802 5.7576v18.085h7.3821v-18.634c0-3.7986-0.9795-6.8326-2.9146-9.0783-2.0068-2.2457-4.6347-3.3924-7.9077-3.3924-3.7747 0-6.6415 1.4573-8.5288 4.348l-1.8396 3.0818-1.8396-3.0818c-1.8873-2.8907-4.7303-4.3241-8.5049-4.3241z" fill="#eed7f4" stroke-width="2.389" android:strokeWidth="0.990258"/></g></svg>
