<?xml version="1.0" encoding="UTF-8"?>
<svg width="256" height="256" version="1.1" viewBox="0 0 67.734 67.733" xml:space="preserve" xmlns="http://www.w3.org/2000/svg" xmlns:xlink="http://www.w3.org/1999/xlink"><defs><linearGradient id="linearGradient947" x1="76.787" x2="110.68" y1="113.4" y2="152.48" gradientTransform="translate(-35.062 -38.438)" gradientUnits="userSpaceOnUse"><stop stop-color="#9b58dc" offset="0"/><stop stop-color="#321c92" offset="1"/></linearGradient></defs><g transform="translate(-30.394 -54.68)"><path d="m74.859 114.77c-0.73146-0.38777-5.0066-2.7568-25.032-13.871-5.5727-3.093-10.938-6.0672-11.923-6.6095-2.2373-1.2315-2.581-1.5346-2.581-2.2753 0-0.3879 0.89293-2.8723 2.9856-8.3069 1.6421-4.2644 3.0943-8.0014 3.227-8.3044 0.3024-0.69008 0.78972-1.2762 1.2657-1.5224 0.44558-0.23042 11.581-4.2968 12.148-4.4364 0.61355-0.1509 1.1428 0.13977 1.4549 0.79901 0.14976 0.31638 0.77213 1.9493 1.383 3.6288 0.6109 1.6794 1.5204 4.1628 2.021 5.5184 1.1471 3.106 1.1899 3.5459 0.3912 4.0177-0.2117 0.12505-1.5887 0.66539-3.0601 1.2008-1.4714 0.53536-2.8753 1.0898-3.1199 1.2321-0.56422 0.32826-0.64913 0.83523-0.20815 1.2427 0.17523 0.16193 3.0043 1.7757 6.2869 3.5862 9.1749 5.0604 8.6656 4.8314 9.2776 4.171 0.29987-0.32356 5.7814-14.266 6.096-15.505 0.1344-0.5295 0.11969-0.60308-0.16695-0.83519-0.39165-0.31714-0.335-0.33071-3.938 0.9431-3.5694 1.2619-3.9093 1.2886-4.3874 0.34488-0.25108-0.49556-4.0958-11.055-4.3345-11.904-0.15438-0.5495 0.0344-1.0717 0.49701-1.3748 0.19228-0.12598 2.9901-1.1994 6.2174-2.3853 4.7892-1.7599 6.0081-2.1584 6.6312-2.1684 0.8037-0.0128 0.90917 0.0424 15.645 8.196 1.021 0.56495 1.5658 1.1596 1.5658 1.7092 0 0.21814-3.6538 9.9101-8.1196 21.538-6.2982 16.399-8.1992 21.211-8.4744 21.453-0.46789 0.41179-0.8512 0.39392-1.7479-0.0815z" fill="url(#linearGradient947)" stroke="url(#linearGradient947)" stroke-width=".139"/></g></svg>
