<?xml version="1.0" encoding="UTF-8"?>
<svg width="64" height="64" fill="none" aria-label="Qwant" version="1.1" viewBox="0 0 53.333 53.333" xmlns="http://www.w3.org/2000/svg">
 <g>
  <rect width="53.333" height="53.333" fill="#212327" style="paint-order:stroke fill markers"/>
  <path d="m37.742 6.9292-1.155 4.482-4.433 1.143v0.457l4.433 1.144 1.156 4.481h0.432l1.156-4.481 4.53-1.169v-0.407l-4.53-1.168-1.156-4.482h-0.432z" fill="#fff"/>
  <path d="m35.02 27.949c0-8.27-5.72-12.528-12.774-12.528-7.055 0-12.774 4.256-12.774 12.528 0 7.68 4.85 11.839 11.126 12.449 3.247 5.312 7.9 6.984 13.028 5.475l0.373-0.47 1.012-5.054-0.902-0.49c-2.889 2.453-7.532 2.451-10.608 0.572 6.466-0.474 11.519-4.656 11.519-12.482zm-6.063 0c0 5.69-2.178 10.302-6.71 10.302-4.767 0-6.71-4.613-6.71-10.303s2.022-10.302 6.71-10.302c4.823 0 6.71 4.612 6.71 10.302z" clip-rule="evenodd" fill="#fff" fill-rule="evenodd"/>
 </g>
</svg>
