<?xml version="1.0" encoding="UTF-8"?>
<svg width="64" height="64" version="1.1" viewBox="0 0 64 64" xmlns="http://www.w3.org/2000/svg">
 <rect width="64" height="64" ry="0" fill="#181a1c" style="paint-order:stroke fill markers"/>
 <path d="m18.798 61.2 0.6885-3.5301c-0.16067-3.32-0.68192-6.5253-1.961-9.3904 0.95834-1.5116 1.3025-4.0964 1.5801-6.7969l-4.0193-6.5944c-0.11694 0.02605-0.70613-0.56513-1.0092-0.97861-0.14055 0.01246-0.28478 0.0242-0.43434 0.03396-6.4966 0.46578-6.6193-6.1018-5.7041-11.102 0.89486-3.3955-4.3499-1.4679-3.9148-1.6795-0.37698-1.0615 0.91119-2.786 2.5045-3.3728 0.59374 0.49854 3.2218 0.93099 2.4979 4.906-1.3358 2.3255-0.16851 13.037 6.8512 7.9812l1.0431-1.5156c3.0427-1.8218 5.1051-3.0068 9.0264-4.5568 1.1954-1.5162 3.7881-4.7779 4.4028-5.3729 0.14762-0.14498 0.9171-0.78063 1.9982-1.4835 1.6984-2.2113 3.4334-6.303 3.2688-8.0065-0.76888 0.67081-1.5815 1.4022-2.5829-0.18711-0.79304-1.2562 1.0909-2.5801 2.8938-2.3571l0.09403-0.10599c-1.2561-1.8964 2.6665-5.1033 2.709-4.1017-0.91844 0.78395-1.799 1.6801-1.1111 3.1229 1.0687-0.82644 2.01-0.89424 2.9455-0.54332l0.96082 0.35999c3.1689 0.66889 6.8107-2.2354 6.8786 0.05586l0.02415 0.80639c-0.50168 0.42253-1.1248 0.80734-1.8324 1.1649 0.59053 0.043479 1.2889-0.14418 1.8546-0.38718l0.02087 0.73192-1.2255 1.1205c-1.0778 1.6281-2.4032 3.2298-4.0063 4.3389 0.04507 0.24588 0.03651 0.70807 0.03332 1.281 1.8767 0.18383 3.8508-0.0754 5.4747-0.59347-0.01106-0.01718-0.02216-0.03437-0.03262-0.0525-0.51667-0.84269 0.11505-2.5724 0.92377-3.4523 0.23966-0.26162 0.72759-0.34803 0.91047-0.43066l2.5332 2.3122c-0.05917 0.35381-0.09931 0.635-0.28169 0.83407-1.0861 1.1884-2.8164 1.7905-3.737 1.1192-1.5501 1.8033-3.3171 3.0504-5.4984 3.5965 0.03994 0.14892 0.08561 0.2939 0.13726 0.43434 0.30311 0.3678 0.5474 0.77346 0.712 1.2269 0.22342 0.44874 0.40436 0.87267 0.55338 1.2804 1.5429-0.1157 2.9166-0.05299 5.1686-0.33708l5.7191 1.8002 4.1866 1.2661-2.427 1.3142-2.2875-1.1171c-1.7827-0.36053-3.4108 0.99888-5.6452-0.31676-0.45168 0.19603-0.96904 0.47882-1.5373 0.82108 0.9674 0.31232 2.029 0.69507 3.4976 1.0811l3.5683 5.9105 1.4608 3.3812-2.5575-0.62773-0.34963-2.1989c-1.6708-2.7912-3.2969-2.5659-4.8338-3.6352-1.2438 0.292-2.8501 0.84005-4.5426 1.3555-0.89748 1.667-2.0473 3.5555-3.7802 5.073l-6.1254 3.0362c0.03651 0.09926 0.06987 0.19986 0.09931 0.30246 0.03781 0.13522 0.06918 0.27039 0.09333 0.40561 0.86097 0.38937 1.7651 1.1046 0.96745 1.5188-0.29001 0.15156-0.64542 0.18293-1.0138 0.15878-0.01643 0.06853-0.03461 0.13716-0.05424 0.20509 0.64731 0.56438 1.1347 1.3032 0.3573 1.503-0.33444 0.08626-0.70936 0.02551-1.0838-0.09538-0.07366 0.09343-0.15086 0.18363-0.23244 0.27049 0.34883 0.77535 0.47807 1.6311-0.30505 1.4939-0.35476-0.06141-0.68401-0.28807-0.98513-0.56832-0.03392 0.01569-0.06794 0.03068-0.10255 0.04567 0.11171 0.90415-0.02087 1.9206-0.76629 1.4999-0.39963-0.22536-0.67146-0.6878-0.88572-1.1705-0.09667-7.47e-4 -0.1921-0.0046-0.28752-0.01245-0.65777 1.6311-1.533 3.1714-2.543 4.363l5.0593 1.1406 1.8114 1.7794-2.6652 1.311-0.96675-2.0587c-1.767 0.06778-5.3016 0.20096-5.3872 0.04966-0.04642-0.08212-0.58196-1.6472-1.211-3.492-0.69442 0.58864-1.4712 1.1936-2.3373 1.8114-0.06794 3.6233-0.93348 6.5213-1.1563 8.9727 0.4972 1.0036 0.48146 2.0559 0.64078 3.0724zm27.563-45.184c-1.3234 0.16655-2.3065 0.12277-3.0832-0.04966 0.01235 0.55268 0.04831 1.1464 0.14179 1.7186 0.93079-0.37617 1.8891-0.87925 2.9414-1.6689z" clip-rule="evenodd" fill="#fff" fill-rule="evenodd" stroke-width=".49804"/>
</svg>
