<?xml version="1.0" encoding="UTF-8" standalone="no"?>
<!-- Created with Inkscape (http://www.inkscape.org/) -->

<svg
   width="256"
   height="256"
   version="1.1"
   viewBox="0 0 256 256"
   id="svg2"
   sodipodi:docname="universal-android-debloater.svg"
   inkscape:version="1.4 (e7c3feb100, 2024-10-09)"
   xmlns:inkscape="http://www.inkscape.org/namespaces/inkscape"
   xmlns:sodipodi="http://sodipodi.sourceforge.net/DTD/sodipodi-0.dtd"
   xmlns="http://www.w3.org/2000/svg"
   xmlns:svg="http://www.w3.org/2000/svg">
  <defs
     id="defs2" />
  <sodipodi:namedview
     id="namedview2"
     pagecolor="#ffffff"
     bordercolor="#000000"
     borderopacity="0.25"
     inkscape:showpageshadow="2"
     inkscape:pageopacity="0.0"
     inkscape:pagecheckerboard="0"
     inkscape:deskcolor="#d1d1d1"
     inkscape:zoom="2.2773438"
     inkscape:cx="128"
     inkscape:cy="128"
     inkscape:window-width="1536"
     inkscape:window-height="792"
     inkscape:window-x="0"
     inkscape:window-y="0"
     inkscape:window-maximized="1"
     inkscape:current-layer="svg2" />
  <g
     stroke-miterlimit="40"
     id="g2">
    <rect
       x="1.5259e-5"
       width="256"
       height="256"
       ry="15.502"
       fill="#1e1e1e"
       stroke-width="16.01"
       style="paint-order:stroke fill markers"
       id="rect1" />
    <path
       d="m 48.888607,85.719225 c -9.81288,0 -14.71932,-5.37372 -14.71932,-15.65388 v -54.78858 h -17.05572 v 54.78858 c 0,4.78962 0.81774,9.11196 2.3364,12.73338 4.55598,10.5138 14.48568,16.70526 29.43864,16.70526 4.55598,0 8.87832,-0.5841 12.73338,-1.86912 11.33154,-3.62142 19.15848,-12.61656 19.15848,-27.56952 v -54.78858 h -17.17254 v 54.78858 c 0,10.28016 -4.78962,15.65388 -14.71932,15.65388 z m 93.190213,-4.43916 5.72418,17.05572 h 18.22392 L 134.9528,15.276765 H 119.06528 L 88.107976,98.335785 H 106.3319 l 5.72418,-17.05572 z m -25.34994,-13.90158 10.28016,-31.07412 10.39698,31.07412 z m 58.61144,30.9573 h 25.46676 c 5.60736,0 10.74744,-0.93456 15.42024,-2.80368 13.55112,-5.49054 22.66308,-17.99028 22.66308,-36.7983 v -3.73824 c 0,-5.95782 -0.93456,-11.33154 -2.80368,-16.23798 -5.2569,-13.55112 -16.70526,-23.48082 -35.16282,-23.48082 h -25.58358 z m 46.1439,-43.45704 v 3.85506 c 0,15.30342 -6.07464,25.81722 -20.67714,25.81722 h -8.29422 v -55.37268 h 8.41104 c 14.71932,0 20.56032,10.28016 20.56032,25.7004 z"
       id="text1"
       style="font-weight:500;font-size:116.82px;font-family:Asimov;letter-spacing:1.72px;fill:#ffffff;stroke-width:9.7349;paint-order:stroke fill markers"
       aria-label="UAD" />
    <path
       d="m 94.826881,167.70448 c 6.832199,0 9.727199,3.0108 9.727199,9.9588 v 39.0246 h 16.3278 v -38.9088 c 0,-14.3592 -5.211,-23.3916 -19.3386,-23.3916 -7.990199,0 -13.895999,3.474 -17.6016,8.2218 l -0.4632,-7.0638 h -15.4014 v 61.1424 h 16.3278 v -43.1934 c 1.968601,-3.2424 5.326801,-5.79 10.422001,-5.79 z m 76.654739,43.7724 v 3.2424 c 0,8.5692 -5.211,13.317 -13.7802,13.317 -6.7164,0 -11.4642,-3.0108 -14.8224,-6.8322 l -7.1796,9.9588 c 4.632,5.6742 12.8538,9.6114 22.8126,9.6114 4.2846,0 8.3376,-0.579 11.9274,-1.737 10.0746,-3.2424 17.4858,-11.2326 17.4858,-24.4338 v -59.058 h -14.8224 l -0.6948,5.6742 c -3.3582,-4.1688 -8.2218,-6.8322 -15.633,-6.8322 -3.8214,0 -7.4112,0.8106 -10.422,2.316 -9.3798,4.632 -14.3592,14.9382 -14.3592,28.95 v 1.158 c 0,9.264 2.4318,17.0226 6.6006,22.2336 3.8214,4.8636 9.7272,8.8008 18.0648,8.8008 6.7164,0 11.58,-2.6634 14.8224,-6.369 z m 0,-38.214 v 25.7076 c -1.9686,3.474 -5.3268,5.6742 -10.6536,5.6742 -2.2002,0 -4.053,-0.4632 -5.6742,-1.3896 -4.7478,-2.7792 -6.8322,-8.9166 -6.8322,-16.4436 v -1.158 c 0,-9.3798 3.2424,-17.949 12.6222,-17.949 5.3268,0 8.4534,2.2002 10.5378,5.5584 z"
       id="text2"
       style="font-weight:500;font-size:115.8px;font-family:Asimov;letter-spacing:1.0374px;fill:#eb2f2f;stroke-width:9.6498;paint-order:stroke fill markers"
       aria-label="ng" />
  </g>
</svg>
