<?xml version="1.0" encoding="UTF-8"?>
<!-- Created with Inkscape (http://www.inkscape.org/) -->
<svg width="512" height="512" version="1.1" viewBox="0 0 512 512" xmlns="http://www.w3.org/2000/svg">
 <rect x="2.7978e-14" y="2.7978e-14" width="512" height="512" ry="0" fill="#fff" stroke-miterlimit="40" stroke-width="15.932" style="paint-order:stroke fill markers"/>
 <path d="m236.73 352.37h-77.096q-39.994 0-68.182-28.188-28.188-28.188-28.188-68.182t28.188-68.182q28.188-28.188 68.182-28.188h77.096v38.548h-77.096q-24.093 0-40.957 16.865-16.865 16.865-16.865 40.957 0 24.093 16.865 40.957t40.957 16.865h77.096zm-57.822-77.096v-38.548h154.19v38.548zm96.37 77.096v-38.548h77.096q24.093 0 40.957-16.865 16.865-16.865 16.865-40.957 0-24.093-16.865-40.957-16.865-16.865-40.957-16.865h-77.096v-38.548h77.096q39.994 0 68.182 28.188 28.188 28.188 28.188 68.182t-28.188 68.182q-28.188 28.188-68.182 28.188z" fill="#1a1a1a" stroke-width=".48185"/>
</svg>
