<?xml version="1.0" encoding="UTF-8"?>
<!-- Created with Inkscape (http://www.inkscape.org/) -->
<svg width="64" height="64" version="1.1" viewBox="0 0 16.933 16.933" xmlns="http://www.w3.org/2000/svg">
 <defs>
  <radialGradient id="a" cx="0" cy="0" r="1" gradientTransform="matrix(9.991 0 0 9.9994 1.7112 1.0079)" gradientUnits="userSpaceOnUse">
   <stop stop-color="#00BAE6" offset=".1"/>
   <stop stop-color="#0084E7" offset=".78"/>
  </radialGradient>
  <radialGradient id="b" cx="0" cy="0" r="1" gradientTransform="matrix(-9.991 0 0 -9.9994 33.722 1.0078)" gradientUnits="userSpaceOnUse">
   <stop stop-color="#788CF3" offset=".14"/>
   <stop stop-color="#587EEF" offset=".46"/>
   <stop stop-color="#1A65E8" offset="1"/>
  </radialGradient>
  <linearGradient id="c" x1="5.2094" x2="30.22" y1="12.889" y2="12.889" gradientUnits="userSpaceOnUse">
   <stop stop-color="#788CF3" offset="0"/>
   <stop stop-color="#57ABF6" offset=".25"/>
   <stop stop-color="#39CAFA" offset=".51"/>
   <stop stop-color="#39CAFA" offset=".86"/>
  </linearGradient>
  <linearGradient id="d" x1="7.4672" x2="27.962" y1="17.594" y2="17.594" gradientUnits="userSpaceOnUse">
   <stop stop-color="#679BF5" offset="0"/>
   <stop stop-color="#529DF4" offset=".19"/>
   <stop stop-color="#34A2F3" offset=".51"/>
   <stop stop-color="#4DAFF7" offset=".86"/>
  </linearGradient>
 </defs>
 <g transform="matrix(.47797 0 0 .47797 -2.1617e-8 2.4921)">
  <path d="m7.0539 17.553c1.1373 0 1.7083-0.649 2.2939-1.9641l2.2044-4.9161-3.6732-8.229c-0.92675-2.0803-3.361-3.0126-5.4395-2.0851-2.0761 0.92753-3.0077 3.3662-2.0809 5.4441l4.8515 10.878c0.39684 0.5739 1.0913 0.8718 1.8414 0.8718z" fill="url(#a)"/>
  <path d="m28.376 17.553c-1.1373 0-1.7083-0.6491-2.2939-1.9641l-2.2044-4.9161 3.6707-8.2291c0.9268-2.0778 3.361-3.0102 5.4395-2.0827 2.0762 0.92753 3.0077 3.3638 2.081 5.4441l-4.8515 10.878c-0.3969 0.5739-1.0913 0.8718-1.8414 0.8718z" fill="url(#b)"/>
  <path d="m28.376 17.556c-1.1373 0-1.7084-0.6491-2.2939-1.9641l-4.5902-10.237c-0.6848-1.5378-2.1971-2.4484-3.7796-2.4411-1.5801-0.00727-3.0924 0.90331-3.7796 2.4411l-4.5902 10.237c-0.58557 1.315-1.1566 1.9641-2.2939 1.9641-0.75011 0-1.4446-0.2955-1.8414-0.8718 0.32666 0.7967 1.2002 3.0659 2.1463 5.0856 0.0363 0.0775 0.0726 0.1526 0.10889 0.2252v-0.0024c0.40409 0.5522 1.1518 0.8694 1.885 0.8694 1.1372 0 1.7083-0.649 2.2938-1.964 0 0 2.9206-6.5242 3.8934-8.7013 0.2637-0.5909 0.8662-2.0125 2.1753-2.0125 1.309 0 1.8849 1.3634 2.1753 2.0125 0.9727 2.1747 3.8933 8.7013 3.8933 8.7013 0.5856 1.315 1.1566 1.964 2.2939 1.964 0.7332 0 1.4809-0.3172 1.885-0.8694v0.0024c0.0363-0.0726 0.0725-0.1477 0.1088-0.2252 0.9461-2.0197 1.8197-4.2889 2.1463-5.0856-0.3968 0.5739-1.0913 0.8718-1.8414 0.8718z" fill="url(#c)"/>
  <path d="m27.962 21.997c-0.438 0.8791-0.9122 1.5112-1.3986 1.9616-0.7259 0.6394-1.6115 1.0027-2.6859 1.0414h-0.0338c-1.1736-0.0242-2.3351-0.5376-3.1215-1.4409-0.2492-0.3028-0.467-0.6466-0.6485-1.0244 0 0-1.2485-2.8407-2.3568-5.3448v0.0048-0.0048c-1.1106 2.5041-2.3568 5.3448-2.3568 5.3448-0.1814 0.3778-0.3968 0.7216-0.6484 1.0244-0.7864 0.9033-1.9503 1.4167-3.1215 1.4409h-0.0338c-1.0744-0.0387-1.96-0.4044-2.6859-1.0414-0.48636-0.4504-0.96063-1.0825-1.3986-1.9616 0.4041 0.5498 1.1518 0.867 1.885 0.867 1.1373 0 1.7084-0.649 2.2939-1.964 0 0 2.9206-6.5242 3.8933-8.7013 0.2904-0.649 0.8687-2.0125 2.1754-2.0125 1.3066 0 1.8849 1.3635 2.1753 2.0125 0.9727 2.1747 3.8933 8.7013 3.8933 8.7013 0.5856 1.315 1.1566 1.964 2.2939 1.964 0.7332 0 1.4809-0.3172 1.8849-0.867z" fill="url(#d)"/>
 </g>
</svg>
