<svg width="256" height="256" version="1.1" viewBox="0 0 256 256" xmlns="http://www.w3.org/2000/svg">
 <defs>
  <style>.cls-1, .cls-4 {
        fill: red;
      }

      .cls-1, .cls-2, .cls-3, .cls-4 {
        fill-rule: evenodd;
      }

      .cls-2 {
        fill: #666;
      }

      .cls-3 {
        fill: #fff;
      }

      .cls-3, .cls-4 {
        stroke: #282828;
        stroke-linejoin: round;
        stroke-width: 1px;
      }</style>
 </defs>
 <path class="cls-3" d="m4.8742 106.52 29.665 16.886-29.665 17.437 6.5268 9.8123 35.552-22.089v-10.315l-35.686-22.089zm80.369 62.524v-11.321h-45.638v11.321z"/>
 <path class="cls-4" d="m104.35 158.13a10.644 10.644 0 0 1-4.4496-3.137 14.672 14.672 0 0 1-2.6818-4.8491 25.566 25.566 0 0 1-1.1977-5.5908 32.828 32.828 0 0 1-0.0574-5.8188 52.57 52.57 0 0 1 0.79902-5.9328l2.3963-14.833a39.257 39.257 0 0 1 2.2248-7.8754 21.763 21.763 0 0 1 4.4496-6.9599 19.293 19.293 0 0 1 6.8459-4.676 20.942 20.942 0 0 1 7.9296-1.5972 16.989 16.989 0 0 1 4.6211 0.62758 9.6704 9.6704 0 0 1 3.8786 2.1108 11.801 11.801 0 0 1 2.6818 3.5374 17.524 17.524 0 0 1 1.4832 4.2216l5.4767-32.978h15.973l-13.802 83.861h-16.087l1.2552-7.7589a16.884 16.884 0 0 1-3.0804 3.708 20.032 20.032 0 0 1-3.9377 2.7958 16.954 16.954 0 0 1-4.4496 1.6538 21.471 21.471 0 0 1-4.6211 0.51354 15.634 15.634 0 0 1-5.6506-1.023zm17.913-12.721a7.7852 7.7852 0 0 0 2.9664-1.7113 8.7467 8.7467 0 0 0 2.0509-2.795 11.442 11.442 0 0 0 0.96967-3.1945l2.5103-14.832q0.22723-1.3692 0.34208-2.795a23.196 23.196 0 0 0 0.0566-2.8048 12.784 12.784 0 0 0-0.3995-2.6809 7.6671 7.6671 0 0 0-1.0271-2.3388 4.512 4.512 0 0 0-1.9393-1.5972 6.2831 6.2831 0 0 0-2.6251-0.57425 10.355 10.355 0 0 0-3.822 0.73832 9.27 9.27 0 0 0-3.3085 2.2248 10.369 10.369 0 0 0-2.1682 3.3085 14.401 14.401 0 0 0-0.96966 3.7654l-2.5103 14.833a19.026 19.026 0 0 0-0.28548 3.8795 9.3357 9.3357 0 0 0 0.79904 3.594 5.3873 5.3873 0 0 0 2.3962 2.5669 7.3012 7.3012 0 0 0 3.594 0.91306 11.301 11.301 0 0 0 3.37-0.5037zm27.554-0.39952h13.691l9.4702-57.391h-10.268v-13.239h28.524l-11.752 70.625h10.268v13.236h-39.933v-13.236zm56.249-47.239h16.088l-1.2552 7.6449a25.667 25.667 0 0 1 3.1379-3.6514 17.566 17.566 0 0 1 3.8786-2.8524 15.627 15.627 0 0 1 4.4504-1.5972 24.155 24.155 0 0 1 4.6194-0.45694 15.663 15.663 0 0 1 5.6482 1.0271 10.698 10.698 0 0 1 4.4496 3.1379 14.893 14.893 0 0 1 2.6809 4.7917 24.871 24.871 0 0 1 1.1985 5.5342 33.759 33.759 0 0 1 0.0566 5.8762q-0.2297 3.0247-0.68418 5.9886l-2.5103 14.833a39.623 39.623 0 0 1-2.2248 7.7581 22.952 22.952 0 0 1-4.393 7.0165 18.299 18.299 0 0 1-6.8467 4.7359 21.386 21.386 0 0 1-7.9862 1.5972 17.162 17.162 0 0 1-4.5636-0.62757 9.1347 9.1347 0 0 1-3.8795-2.1108 12.198 12.198 0 0 1-2.6252-3.5366 21.84 21.84 0 0 1-1.5972-4.2216l-5.4767 32.973h-15.971zm19.568 47.407a9.234 9.234 0 0 0 3.3118-2.2232 10.24 10.24 0 0 0 2.1682-3.3635 20.374 20.374 0 0 0 1.0837-3.708l2.3963-14.833a19.065 19.065 0 0 0 0.28466-3.8795 9.3956 9.3956 0 0 0-0.7982-3.594 5.4226 5.4226 0 0 0-2.3963-2.5669 7.3274 7.3274 0 0 0-3.594-0.91306 11.289 11.289 0 0 0-3.3635 0.51355 7.7606 7.7606 0 0 0-2.9664 1.7113 8.0321 8.0321 0 0 0-2.0025 2.7917 17.432 17.432 0 0 0-1.0271 3.1945l-2.3955 14.833q-0.2297 1.3692-0.39951 2.795a13.284 13.284 0 0 0-0.0575 2.7384 20.66 20.66 0 0 0 0.39951 2.6252 7.366 7.366 0 0 0 0.96966 2.3938 4.3479 4.3479 0 0 0 1.9402 1.6547 6.2503 6.2503 0 0 0 2.6251 0.57425 10.327 10.327 0 0 0 3.8212-0.74407z"/>
</svg>
